<svg width="26" height="26" viewBox="0 0 26 26" fill="none" xmlns="http://www.w3.org/2000/svg">
<path fill-rule="evenodd" clip-rule="evenodd" d="M4.87491 1.625V15.4375C4.87491 15.8862 5.23867 16.25 5.68739 16.25H21.9371C22.2998 16.25 22.6186 16.0095 22.7183 15.6607L25.9682 4.28571C26.1165 3.76667 25.7268 3.25 25.187 3.25H10.5623C10.1136 3.25 9.74981 3.61377 9.74981 4.0625C9.74981 4.51123 10.1136 4.875 10.5623 4.875H24.1099L21.3242 14.625H6.49988V0.8125C6.49988 0.363769 6.13611 0 5.68739 0H0.812485C0.363762 0 0 0.363769 0 0.8125C0 1.26123 0.363762 1.625 0.812485 1.625H4.87491ZM9.74981 22.75C9.74981 24.5449 8.29477 26 6.49988 26C4.70499 26 3.24994 24.5449 3.24994 22.75C3.24994 20.9551 4.70499 19.5 6.49988 19.5C8.29477 19.5 9.74981 20.9551 9.74981 22.75ZM4.87491 22.75C4.87491 23.6475 5.60243 24.375 6.49988 24.375C7.39732 24.375 8.12485 23.6475 8.12485 22.75C8.12485 21.8525 7.39732 21.125 6.49988 21.125C5.60243 21.125 4.87491 21.8525 4.87491 22.75ZM21.1246 26C22.9195 26 24.3745 24.5449 24.3745 22.75C24.3745 20.9551 22.9195 19.5 21.1246 19.5C19.3297 19.5 17.8747 20.9551 17.8747 22.75C17.8747 24.5449 19.3297 26 21.1246 26ZM21.1246 24.375C20.2272 24.375 19.4996 23.6475 19.4996 22.75C19.4996 21.8525 20.2272 21.125 21.1246 21.125C22.022 21.125 22.7496 21.8525 22.7496 22.75C22.7496 23.6475 22.022 24.375 21.1246 24.375Z" fill="white"/>
</svg>
