<svg width="23" height="24" viewBox="0 0 23 24" fill="none" xmlns="http://www.w3.org/2000/svg">
<path fill-rule="evenodd" clip-rule="evenodd" d="M22.919 7.052C22.832 5.129 22.411 3.426 21.062 2.023C19.717 0.62 18.086 0.181 16.244 0.084C14.345 -0.028 8.654 -0.028 6.756 0.084C4.919 0.175 3.288 0.614 1.938 2.018C0.588 3.42 0.173 5.124 0.081 7.046C-0.027 9.028 -0.027 14.966 0.081 16.948C0.168 18.871 0.589 20.574 1.938 21.977C3.288 23.38 4.914 23.819 6.756 23.916C8.655 24.028 14.346 24.028 16.244 23.916C18.086 23.825 19.717 23.386 21.062 21.977C22.406 20.574 22.827 18.871 22.919 16.948C23.027 14.967 23.027 9.033 22.919 7.052ZM17.639 7.03C18.399 7.03 19.014 6.393 19.014 5.595H19.015C19.015 4.802 18.4 4.16 17.64 4.16C16.88 4.16 16.264 4.802 16.264 5.595C16.264 6.388 16.875 7.03 17.639 7.03ZM11.503 5.847C8.239 5.847 5.607 8.594 5.607 12C5.607 15.406 8.239 18.153 11.503 18.153C14.766 18.153 17.398 15.406 17.398 12C17.398 8.594 14.766 5.847 11.503 5.847ZM11.503 16C9.393 16 7.67 14.206 7.67 12C7.67 9.794 9.389 8 11.503 8C13.617 8 15.335 9.794 15.335 12C15.335 14.206 13.611 16 11.503 16ZM18.281 21.356C19.2941 20.9306 20.0855 20.1044 20.467 19.074C20.9814 17.7245 20.9526 14.7726 20.9339 12.8576C20.9308 12.539 20.928 12.2491 20.928 12C20.928 11.7509 20.9308 11.461 20.9339 11.1425C20.9526 9.22866 20.9814 6.28058 20.467 4.926C20.061 3.871 19.286 3.062 18.281 2.644C16.9833 2.10959 14.1378 2.13801 12.3039 2.15633C12.0067 2.1593 11.7361 2.162 11.503 2.162C11.2654 2.162 10.9891 2.1591 10.6856 2.15591C8.85172 2.13663 6.023 2.1069 4.724 2.644C3.71132 3.06962 2.92026 3.8958 2.539 4.926C2.02636 6.27984 2.0538 9.2465 2.0715 11.161C2.07438 11.4723 2.077 11.7558 2.077 12C2.077 12.2479 2.07422 12.5362 2.07116 12.853C2.05269 14.7667 2.0242 17.7184 2.539 19.074C2.944 20.129 3.719 20.938 4.724 21.356C6.02255 21.8904 8.86733 21.862 10.7017 21.8437C10.9989 21.8407 11.2697 21.838 11.503 21.838C11.7404 21.838 12.0165 21.8409 12.3199 21.8441C14.1532 21.8634 16.982 21.8931 18.281 21.356Z" fill="#595959"/>
</svg>
