<svg width="27" height="23" viewBox="0 0 27 23" fill="none" xmlns="http://www.w3.org/2000/svg">
<path d="M24.225 5.732C24.242 5.984 24.242 6.235 24.242 6.487C24.242 14.159 18.674 23 8.497 23C5.362 23 2.45 22.048 0 20.395C0.445 20.448 0.874 20.466 1.336 20.466C3.923 20.466 6.305 19.55 8.206 17.986C5.773 17.933 3.735 16.262 3.032 13.962C3.375 14.016 3.718 14.052 4.077 14.052C4.574 14.052 5.071 13.98 5.534 13.854C2.998 13.314 1.096 10.979 1.096 8.158V8.086C1.833 8.517 2.69 8.786 3.598 8.823C2.108 7.78 1.13 6.002 1.13 3.989C1.13 2.911 1.404 1.923 1.883 1.06C4.607 4.582 8.703 6.882 13.293 7.134C13.2041 6.69619 13.1583 6.25074 13.156 5.804C13.157 2.605 15.624 0 18.691 0C20.284 0 21.723 0.7 22.734 1.833C23.984 1.581 25.184 1.096 26.246 0.431C25.8464 1.7554 24.9826 2.89124 23.813 3.63C24.9156 3.49737 25.9909 3.19373 27 2.73C26.2499 3.87893 25.3118 4.89343 24.225 5.731V5.732Z" fill="#595959"/>
</svg>
